{
    "asset" : {
        "generator" : "Khronos glTF Blender I/O v1.8.19",
        "version" : "2.0"
    },
    "scene" : 0,
    "scenes" : [
        {
            "name" : "Scene",
            "nodes" : [
                0
            ]
        }
    ],
    "nodes" : [
        {
            "mesh" : 0,
            "name" : "Character",
            "scale" : [
                0.3202997148036957,
                0.35236331820487976,
                0.3202997148036957
            ],
            "translation" : [
                1.2360482215881348,
                0.5369649529457092,
                0.0060196854174137115
            ]
        }
    ],
    "materials" : [
        {
            "doubleSided" : true,
            "name" : "Material",
            "pbrMetallicRoughness" : {
                "baseColorTexture" : {
                    "index" : 0
                },
                "metallicFactor" : 0,
                "roughnessFactor" : 0.5
            }
        },
        {
            "doubleSided" : true,
            "name" : "HairMat",
            "pbrMetallicRoughness" : {
                "metallicFactor" : 0,
                "roughnessFactor" : 0.4000000059604645
            }
        }
    ],
    "meshes" : [
        {
            "name" : "Cube.005",
            "primitives" : [
                {
                    "attributes" : {
                        "POSITION" : 0,
                        "NORMAL" : 1,
                        "TEXCOORD_0" : 2
                    },
                    "indices" : 3,
                    "material" : 0
                },
                {
                    "attributes" : {
                        "POSITION" : 4,
                        "NORMAL" : 5,
                        "TEXCOORD_0" : 6
                    },
                    "indices" : 7,
                    "material" : 1
                }
            ]
        }
    ],
    "textures" : [
        {
            "sampler" : 0,
            "source" : 0
        }
    ],
    "images" : [
        {
            "bufferView" : 4,
            "mimeType" : "image/png",
            "name" : "CharacterTexture2"
        }
    ],
    "accessors" : [
        {
            "bufferView" : 0,
            "componentType" : 5126,
            "count" : 1948,
            "max" : [
                2.6157355308532715,
                0.5173094868659973,
                0.8868223428726196
            ],
            "min" : [
                -2.6083850860595703,
                -4.258904457092285,
                -0.8354920148849487
            ],
            "type" : "VEC3"
        },
        {
            "bufferView" : 1,
            "componentType" : 5126,
            "count" : 1948,
            "type" : "VEC3"
        },
        {
            "bufferView" : 2,
            "componentType" : 5126,
            "count" : 1948,
            "type" : "VEC2"
        },
        {
            "bufferView" : 3,
            "componentType" : 5123,
            "count" : 5970,
            "type" : "SCALAR"
        },
        {
            "bufferView" : 5,
            "componentType" : 5126,
            "count" : 85,
            "max" : [
                1.1146953105926514,
                0.5472611784934998,
                1.1322959661483765
            ],
            "min" : [
                -1.13380765914917,
                -0.9357972145080566,
                -0.8695054650306702
            ],
            "type" : "VEC3"
        },
        {
            "bufferView" : 6,
            "componentType" : 5126,
            "count" : 85,
            "type" : "VEC3"
        },
        {
            "bufferView" : 7,
            "componentType" : 5126,
            "count" : 85,
            "type" : "VEC2"
        },
        {
            "bufferView" : 8,
            "componentType" : 5123,
            "count" : 156,
            "type" : "SCALAR"
        }
    ],
    "bufferViews" : [
        {
            "buffer" : 0,
            "byteLength" : 23376,
            "byteOffset" : 0
        },
        {
            "buffer" : 0,
            "byteLength" : 23376,
            "byteOffset" : 23376
        },
        {
            "buffer" : 0,
            "byteLength" : 15584,
            "byteOffset" : 46752
        },
        {
            "buffer" : 0,
            "byteLength" : 11940,
            "byteOffset" : 62336
        },
        {
            "buffer" : 0,
            "byteLength" : 57736,
            "byteOffset" : 74276
        },
        {
            "buffer" : 0,
            "byteLength" : 1020,
            "byteOffset" : 132012
        },
        {
            "buffer" : 0,
            "byteLength" : 1020,
            "byteOffset" : 133032
        },
        {
            "buffer" : 0,
            "byteLength" : 680,
            "byteOffset" : 134052
        },
        {
            "buffer" : 0,
            "byteLength" : 312,
            "byteOffset" : 134732
        }
    ],
    "samplers" : [
        {
            "magFilter" : 9729,
            "minFilter" : 9987
        }
    ],
    "buffers" : [
        {
            "byteLength" : 135044,
            "uri" : "data:application/octet-stream;base64,"
        }
    ]
}
