{
    "asset" : {
        "generator" : "Khronos glTF Blender I/O v1.8.19",
        "version" : "2.0"
    },
    "scene" : 0,
    "scenes" : [
        {
            "name" : "Scene",
            "nodes" : [
                0,
                1,
                2,
                3,
                4,
                5
            ]
        }
    ],
    "nodes" : [
        {
            "mesh" : 0,
            "name" : "Cube",
            "scale" : [
                8.275245666503906,
                0.26367121934890747,
                -6.911255836486816
            ],
            "translation" : [
                1.2105498313903809,
                -2.9313511848449707,
                -0.15215635299682617
            ]
        },
        {
            "mesh" : 1,
            "name" : "Cube.001",
            "scale" : [
                -3.5375661849975586,
                -0.4147796630859375,
                -4.276470184326172
            ],
            "translation" : [
                -17.05225944519043,
                -8.613605499267578,
                -36.30316162109375
            ]
        },
        {
            "mesh" : 2,
            "name" : "Cube.002",
            "scale" : [
                -3.5375661849975586,
                -0.4147796630859375,
                -4.276470184326172
            ],
            "translation" : [
                -27.926219940185547,
                -8.613605499267578,
                -25.70333480834961
            ]
        },
        {
            "mesh" : 3,
            "name" : "Cube.003",
            "scale" : [
                -3.5375661849975586,
                -0.4147796630859375,
                -4.276470184326172
            ],
            "translation" : [
                -38.89155960083008,
                -8.613605499267578,
                -37.03418731689453
            ]
        },
        {
            "mesh" : 4,
            "name" : "Cube.004",
            "rotation" : [
                -0.3165002465248108,
                0,
                0,
                0.9485924243927002
            ],
            "scale" : [
                10.948409080505371,
                10.948409080505371,
                -0.6126880049705505
            ],
            "translation" : [
                -55.928321838378906,
                -19.119953155517578,
                -37.258872985839844
            ]
        },
        {
            "mesh" : 5,
            "name" : "Cube.005",
            "scale" : [
                -40.3765869140625,
                -0.4147796332836151,
                -4.276470184326172
            ],
            "translation" : [
                -73.59674072265625,
                -31.13817024230957,
                -25.411766052246094
            ]
        }
    ],
    "materials" : [
        {
            "doubleSided" : true,
            "name" : "Material.002",
            "pbrMetallicRoughness" : {
                "baseColorTexture" : {
                    "index" : 0
                },
                "metallicFactor" : 0,
                "roughnessFactor" : 0.5
            }
        }
    ],
    "meshes" : [
        {
            "name" : "Cube",
            "primitives" : [
                {
                    "attributes" : {
                        "POSITION" : 0,
                        "NORMAL" : 1,
                        "TEXCOORD_0" : 2
                    },
                    "indices" : 3,
                    "material" : 0
                }
            ]
        },
        {
            "name" : "Cube.002",
            "primitives" : [
                {
                    "attributes" : {
                        "POSITION" : 4,
                        "NORMAL" : 5,
                        "TEXCOORD_0" : 6
                    },
                    "indices" : 7
                }
            ]
        },
        {
            "name" : "Cube.003",
            "primitives" : [
                {
                    "attributes" : {
                        "POSITION" : 8,
                        "NORMAL" : 9,
                        "TEXCOORD_0" : 10
                    },
                    "indices" : 7
                }
            ]
        },
        {
            "name" : "Cube.004",
            "primitives" : [
                {
                    "attributes" : {
                        "POSITION" : 11,
                        "NORMAL" : 12,
                        "TEXCOORD_0" : 13
                    },
                    "indices" : 7
                }
            ]
        },
        {
            "name" : "Cube.006",
            "primitives" : [
                {
                    "attributes" : {
                        "POSITION" : 14,
                        "NORMAL" : 15,
                        "TEXCOORD_0" : 16
                    },
                    "indices" : 17
                }
            ]
        },
        {
            "name" : "Cube.007",
            "primitives" : [
                {
                    "attributes" : {
                        "POSITION" : 18,
                        "NORMAL" : 19,
                        "TEXCOORD_0" : 20
                    },
                    "indices" : 21
                }
            ]
        }
    ],
    "textures" : [
        {
            "sampler" : 0,
            "source" : 0
        }
    ],
    "images" : [
        {
            "bufferView" : 4,
            "mimeType" : "image/png",
            "name" : "GameObject1Texture"
        }
    ],
    "accessors" : [
        {
            "bufferView" : 0,
            "componentType" : 5126,
            "count" : 176,
            "max" : [
                1.0411458015441895,
                13.168702125549316,
                4.803424835205078
            ],
            "min" : [
                -1.7125921249389648,
                -23.32914924621582,
                -1.0126837491989136
            ],
            "type" : "VEC3"
        },
        {
            "bufferView" : 1,
            "componentType" : 5126,
            "count" : 176,
            "type" : "VEC3"
        },
        {
            "bufferView" : 2,
            "componentType" : 5126,
            "count" : 176,
            "type" : "VEC2"
        },
        {
            "bufferView" : 3,
            "componentType" : 5123,
            "count" : 270,
            "type" : "SCALAR"
        },
        {
            "bufferView" : 5,
            "componentType" : 5126,
            "count" : 24,
            "max" : [
                1,
                1,
                1
            ],
            "min" : [
                -1,
                -1,
                -1
            ],
            "type" : "VEC3"
        },
        {
            "bufferView" : 6,
            "componentType" : 5126,
            "count" : 24,
            "type" : "VEC3"
        },
        {
            "bufferView" : 7,
            "componentType" : 5126,
            "count" : 24,
            "type" : "VEC2"
        },
        {
            "bufferView" : 8,
            "componentType" : 5123,
            "count" : 36,
            "type" : "SCALAR"
        },
        {
            "bufferView" : 9,
            "componentType" : 5126,
            "count" : 24,
            "max" : [
                1,
                1,
                1
            ],
            "min" : [
                -1,
                -1,
                -1
            ],
            "type" : "VEC3"
        },
        {
            "bufferView" : 10,
            "componentType" : 5126,
            "count" : 24,
            "type" : "VEC3"
        },
        {
            "bufferView" : 11,
            "componentType" : 5126,
            "count" : 24,
            "type" : "VEC2"
        },
        {
            "bufferView" : 12,
            "componentType" : 5126,
            "count" : 24,
            "max" : [
                1,
                1,
                1
            ],
            "min" : [
                -1,
                -1,
                -1
            ],
            "type" : "VEC3"
        },
        {
            "bufferView" : 13,
            "componentType" : 5126,
            "count" : 24,
            "type" : "VEC3"
        },
        {
            "bufferView" : 14,
            "componentType" : 5126,
            "count" : 24,
            "type" : "VEC2"
        },
        {
            "bufferView" : 15,
            "componentType" : 5126,
            "count" : 36,
            "max" : [
                1.0657812356948853,
                1.3944215774536133,
                1
            ],
            "min" : [
                -1.138093113899231,
                -1,
                -7.822968482971191
            ],
            "type" : "VEC3"
        },
        {
            "bufferView" : 16,
            "componentType" : 5126,
            "count" : 36,
            "type" : "VEC3"
        },
        {
            "bufferView" : 17,
            "componentType" : 5126,
            "count" : 36,
            "type" : "VEC2"
        },
        {
            "bufferView" : 18,
            "componentType" : 5123,
            "count" : 54,
            "type" : "SCALAR"
        },
        {
            "bufferView" : 19,
            "componentType" : 5126,
            "count" : 94,
            "max" : [
                1,
                1,
                1
            ],
            "min" : [
                -1,
                -10.737959861755371,
                -1
            ],
            "type" : "VEC3"
        },
        {
            "bufferView" : 20,
            "componentType" : 5126,
            "count" : 94,
            "type" : "VEC3"
        },
        {
            "bufferView" : 21,
            "componentType" : 5126,
            "count" : 94,
            "type" : "VEC2"
        },
        {
            "bufferView" : 22,
            "componentType" : 5123,
            "count" : 150,
            "type" : "SCALAR"
        }
    ],
    "bufferViews" : [
        {
            "buffer" : 0,
            "byteLength" : 2112,
            "byteOffset" : 0
        },
        {
            "buffer" : 0,
            "byteLength" : 2112,
            "byteOffset" : 2112
        },
        {
            "buffer" : 0,
            "byteLength" : 1408,
            "byteOffset" : 4224
        },
        {
            "buffer" : 0,
            "byteLength" : 540,
            "byteOffset" : 5632
        },
        {
            "buffer" : 0,
            "byteLength" : 40135,
            "byteOffset" : 6172
        },
        {
            "buffer" : 0,
            "byteLength" : 288,
            "byteOffset" : 46308
        },
        {
            "buffer" : 0,
            "byteLength" : 288,
            "byteOffset" : 46596
        },
        {
            "buffer" : 0,
            "byteLength" : 192,
            "byteOffset" : 46884
        },
        {
            "buffer" : 0,
            "byteLength" : 72,
            "byteOffset" : 47076
        },
        {
            "buffer" : 0,
            "byteLength" : 288,
            "byteOffset" : 47148
        },
        {
            "buffer" : 0,
            "byteLength" : 288,
            "byteOffset" : 47436
        },
        {
            "buffer" : 0,
            "byteLength" : 192,
            "byteOffset" : 47724
        },
        {
            "buffer" : 0,
            "byteLength" : 288,
            "byteOffset" : 47916
        },
        {
            "buffer" : 0,
            "byteLength" : 288,
            "byteOffset" : 48204
        },
        {
            "buffer" : 0,
            "byteLength" : 192,
            "byteOffset" : 48492
        },
        {
            "buffer" : 0,
            "byteLength" : 432,
            "byteOffset" : 48684
        },
        {
            "buffer" : 0,
            "byteLength" : 432,
            "byteOffset" : 49116
        },
        {
            "buffer" : 0,
            "byteLength" : 288,
            "byteOffset" : 49548
        },
        {
            "buffer" : 0,
            "byteLength" : 108,
            "byteOffset" : 49836
        },
        {
            "buffer" : 0,
            "byteLength" : 1128,
            "byteOffset" : 49944
        },
        {
            "buffer" : 0,
            "byteLength" : 1128,
            "byteOffset" : 51072
        },
        {
            "buffer" : 0,
            "byteLength" : 752,
            "byteOffset" : 52200
        },
        {
            "buffer" : 0,
            "byteLength" : 300,
            "byteOffset" : 52952
        }
    ],
    "samplers" : [
        {
            "magFilter" : 9729,
            "minFilter" : 9987
        }
    ],
    "buffers" : [
        {
            "byteLength" : 53252,
            "uri" : "data:application/octet-stream;base64,"
        }
    ]
}
